<svg width="400" height="300" viewBox="0 0 400 300" xmlns="http://www.w3.org/2000/svg">
  <rect width="400" height="300" fill="#f3f4f6" />
  <g fill="#d1d5db">
    <path d="M181.9,77.2c-0.3-1-0.5-2-0.5-3.1c0-6.1,5-11.1,11.1-11.1s11.1,5,11.1,11.1c0,1.1-0.2,2.1-0.5,3.1h0.5v140.6
    c0,2.2-1.8,4-4,4H185c-2.2,0-4-1.8-4-4V77.2H181.9z"/>
    <path d="M203.7,104c0,0,22.5,34.1,22.5,63.8c0,29.8-18.3,54-22.5,54s-22.5-24.2-22.5-54C181.2,138.1,203.7,104,203.7,104z"/>
    <path d="M271.9,122c-8.7-8.7-22.9-8.7-31.6,0l-16.6,16.6l31.6,31.6l16.6-16.6C280.6,144.9,280.6,130.7,271.9,122z"/>
    <path d="M214.9,147.5L176,186.5c-5.7,5.7-9.1,13.5-9.1,21.7v0h78.1v-29.1L214.9,147.5z"/>
    <path d="M210.8,210c0,5.5-4.5,10-10,10H143c-5.5,0-10-4.5-10-10v-1.8c0-5.5,4.5-10,10-10h57.7c5.5,0,10,4.5,10,10V210z"/>
  </g>
  <text x="200" y="175" font-family="Arial" font-size="20" text-anchor="middle" fill="#6b7280">EcoCropShare</text>
</svg>